<svg height="512pt" viewBox="0 0 512 512" width="512pt" xmlns="http://www.w3.org/2000/svg" xmlns:xlink="http://www.w3.org/1999/xlink"><linearGradient id="a" gradientUnits="userSpaceOnUse" x1="0" x2="512" y1="256" y2="256"><stop offset="0" stop-color="#00f38d"/><stop offset="1" stop-color="#009eff"/></linearGradient><path d="m512 256c0 141.386719-114.613281 256-256 256s-256-114.613281-256-256 114.613281-256 256-256 256 114.613281 256 256zm0 0" fill="url(#a)"/><g fill="#fff"><path d="m290.289062 181.035156c9.507813 0 17.238282-7.730468 17.238282-17.238281 0-9.503906-7.730469-17.234375-17.238282-17.234375-9.503906 0-17.234374 7.730469-17.234374 17.234375 0 9.507813 7.730468 17.238281 17.234374 17.238281zm0 0"/><path d="m298.203125 278.269531c-1.726563.84375-3.113281.269531-3.976563-.359375-.769531-.570312-1.660156-1.585937-1.570312-3.230468l9.960938-39.625c.109374-.433594.199218-.867188.265624-1.308594 1.800782-11.8125-3.058593-23.550782-12.6875-30.628906-9.628906-7.082032-22.285156-8.226563-33.023437-2.984376-8.351563 4.074219-10.222656 4.984376-10.230469 4.992188l-1.46875.613281 12.378906 25.414063 11.675782-5.691406c1.734375-.847657 3.117187-.273438 3.976562.355468.769532.570313 1.660156 1.589844 1.570313 3.234375l-9.960938 39.621094c-.109375.433594-.199219.871094-.265625 1.308594-1.800781 11.816406 3.0625 23.550781 12.6875 30.628906 5.554688 4.085937 12.109375 6.242187 18.964844 6.242187 4.832031 0 9.691406-1.125 14.0625-3.257812l9.902344-4.832031-12.355469-25.324219zm0 0"/><path d="m285.308594 93c-73.714844 0-133.6875 59.972656-133.6875 133.6875 0 30.507812 10.558594 60.285156 29.761718 84.003906l-88.382812 88.382813 19.925781 19.925781 88.382813-88.382812c23.71875 19.203124 53.492187 29.761718 84.003906 29.761718 73.714844 0 133.6875-59.972656 133.6875-133.691406 0-73.714844-59.972656-133.6875-133.691406-133.6875zm105.511718 133.6875c0 58.179688-47.332031 105.511719-105.511718 105.511719-58.175782 0-105.507813-47.332031-105.507813-105.511719 0-58.175781 47.332031-105.507812 105.507813-105.507812 58.179687 0 105.511718 47.332031 105.511718 105.507812zm0 0"/></g></svg>