<svg id="Capa_1" enable-background="new 0 0 512 512" height="512" viewBox="0 0 512 512" width="512" xmlns="http://www.w3.org/2000/svg"><g><path d="m504.501 71.249h-30c-1.989 0-3.897.79-5.303 2.197l-27.803 27.803h-191.894c-9.778 0-18.114 6.271-21.21 15h-107.581c-3.096-8.729-11.432-15-21.21-15h-10.254c-3.484-17.096-18.635-30-36.745-30h-30c-4.142 0-7.5 3.358-7.5 7.5v128.775c-8.404 2.958-14.533 10.757-14.975 20.146-.293 6.217 1.907 12.115 6.193 16.608 4.226 4.43 10.16 6.97 16.281 6.97 8.203 0 15.687 3.796 20.532 10.414 4.846 6.619 6.204 14.899 3.726 22.719l-21.601 68.177c-6.74 21.273-10.158 43.375-10.158 65.692v15c0 1.989.79 3.897 2.197 5.303 1.407 1.407 3.314 2.197 5.304 2.197l107.001-.004c12.405 0 22.498-10.093 22.498-22.498 0-6.116-2.537-12.046-6.959-16.27-5.175-4.944-7.739-11.821-7.033-18.868.887-8.856 2.372-17.675 4.422-26.361 3.036-9.279 11.594-15.502 21.376-15.502h70.694c20.678 0 37.5-16.822 37.5-37.5v-30c0-12.407 10.093-22.5 22.5-22.5 4.142 0 7.5-3.358 7.5-7.5v-37.5h202.5c4.142 0 7.5-3.358 7.5-7.5v-120c.001-4.14-3.356-7.498-7.498-7.498zm-26.894 15h19.394v15h-34.394zm-250.606 90h-67.5c-4.136 0-7.5-3.364-7.5-7.5s3.364-7.5 7.5-7.5h67.5zm0-30h-67.5c-12.407 0-22.5 10.093-22.5 22.5s10.093 22.5 22.5 22.5h67.5v15h-105v-75h105zm-174.5-60c9.778 0 18.114 6.271 21.21 15h-43.71v-15zm-35.429 147.675c-1.428-1.497-2.161-3.467-2.063-5.548.191-4.063 3.412-7.127 7.491-7.127 4.142 0 7.5-3.358 7.5-7.5v-97.5h69.5c4.136 0 7.5 3.364 7.5 7.5v90c0 4.142 3.358 7.5 7.5 7.5h120c4.142 0 7.5-3.358 7.5-7.5v-90c0-4.136 3.364-7.5 7.5-7.5h37.5v120h-264.5c-2.07 0-3.998-.826-5.428-2.325zm209.937 61.038c-8.728-3.096-14.996-11.437-14.996-21.213v-22.5h22.508c-4.719 6.272-7.521 14.066-7.521 22.503zm-97.507 130.785-99.501.004v-7.5c0-20.778 3.182-41.355 9.458-61.162l21.601-68.177c3.938-12.429 1.779-25.591-5.923-36.11-.39-.532-.797-1.044-1.208-1.553h112.794c-6.606 6.257-11.707 14.209-14.607 23.364l-19.943 62.946c-4.536 14.317-7.594 29.141-9.088 44.057-1.169 11.676 3.058 23.052 11.598 31.21 1.496 1.429 2.32 3.354 2.32 5.422-.002 4.136-3.366 7.499-7.501 7.499zm127.499-151.998v30c0 12.407-10.093 22.5-22.5 22.5h-70.694c-4.563 0-8.965.814-13.053 2.323l15.66-49.428c4.514-14.249 16.341-24.505 30.599-27.196v21.801c0 20.678 16.822 37.5 37.5 37.5 1.99 0 3.898-.791 5.304-2.198 1.407-1.407 2.197-3.316 2.196-5.305l-.013-29.997c0-12.407 10.093-22.5 22.5-22.5-4.697 6.272-7.499 14.064-7.499 22.5zm45-82.5v-30h22.5c4.142 0 7.5-3.358 7.5-7.5s-3.358-7.5-7.5-7.5h-22.5v-30h195v30h-142.5c-4.142 0-7.5 3.358-7.5 7.5s3.358 7.5 7.5 7.5h142.5v30z"/></g></svg>